Patient4_TMGait_0pt2_03_left_03_GRF.mot
version=1
nRows=26
nColumns=19
inDegrees=no
endheader
time	F1x	F1y	F1z	M1x	M1y	M1z	F2x	F2y	F2z	M2x	M2y	M2z	EC1x	EC1y	EC1z	EC2x	EC2y	EC2z
5.16	-9.4344	18.3201	5.4822	-5.3368	-8.2529	15.4014	-31.6434	776.5612	-54.2152	290.4642	67.0249	773.7827	-0.0592	0.0182	-0.0073	-0.0462	0.0165	0.9585
5.1806	-7.1448	13.4986	4.0841	-3.9576	-6.1696	11.4353	-32.9453	786.9199	-52.9991	294.1748	66.0277	784.137	-0.0592	0.0182	-0.0073	-0.0462	0.0165	0.9585
5.2013	-4.8928	8.995	2.7524	-2.6614	-4.1704	7.6958	-34.2443	799.39	-51.6079	298.6925	64.7667	796.2752	-0.0592	0.0182	-0.0073	-0.0462	0.0165	0.9585
5.2219	-2.9708	5.2976	1.6457	-1.5917	-2.4997	4.6125	-35.2376	813.126	-50.1422	303.6957	63.2297	809.2087	-0.0592	0.0182	-0.0073	-0.0462	0.0165	0.9585
5.2426	-1.4992	2.5594	0.81722	-0.79666	-1.246	2.3291	-35.6026	826.6687	-48.7155	308.6163	61.4145	821.39	-0.0592	0.0182	-0.0073	-0.0462	0.0165	0.9585
5.2632	-0.48363	0.72529	0.25815	-0.26277	-0.40242	0.79526	-35.0821	837.9273	-47.4314	312.6435	59.3375	830.7333	-0.0592	0.0182	-0.0073	-0.0462	0.0165	0.9585
5.2839	0.13245	-0.37219	-0.072095	0.05748	0.089589	-0.13217	-33.5691	844.5515	-46.329	314.8739	57.0134	834.9934	-0.0592	0.0182	-0.0073	-0.0462	0.0165	0.9585
5.3045	0.43438	-0.94128	-0.22866	0.22659	0.31391	-0.62624	-31.1	844.6837	-45.3491	314.6037	54.4202	832.4755	-0.0592	0.0182	-0.0073	-0.0462	0.0165	0.9585
5.3251	0.51642	-1.193	-0.26668	0.30853	0.35707	-0.86356	-27.7926	837.5878	-44.3691	311.5665	51.5119	822.5959	-0.0592	0.0182	-0.0073	-0.0462	0.0165	0.9585
5.3458	0.46206	-1.3176	-0.23248	0.36059	0.2938	-1.0047	-23.792	823.8596	-43.2679	306.0093	48.2544	806.0449	-0.0592	0.0182	-0.0073	-0.0462	0.0165	0.9585
5.3664	0.33648	-1.4722	-0.16252	0.43087	0.17994	-1.1938	-19.2328	805.2403	-41.9827	298.6139	44.6595	784.5841	-0.0592	0.0182	-0.0073	-0.0462	0.0165	0.9585
5.3871	0.19015	-1.7749	-0.086905	0.55593	0.059181	-1.5462	-14.2457	784.167	-40.5312	290.3175	40.8104	760.6132	-0.0592	0.0182	-0.0073	-0.0462	0.0165	0.9585
5.4077	0.065156	-2.3005	-0.027641	0.75854	-0.034164	-2.1307	-8.9865	763.2326	-39.0069	282.1056	36.8689	736.6658	-0.0592	0.0182	-0.0073	-0.0462	0.0165	0.9585
5.4284	-0.00067861	-3.0615	-0.0016859	1.0406	-0.070737	-2.9549	-3.6373	744.7653	-37.5553	274.8554	33.0518	715.0141	-0.0592	0.0182	-0.0073	-0.0462	0.0165	0.9585
5.449	0.030554	-3.9865	-0.025231	1.3752	-0.020529	-3.9473	1.6276	730.5687	-36.3356	269.2385	29.579	697.421	-0.0592	0.0182	-0.0073	-0.0462	0.0165	0.9585
5.4696	0.20209	-4.8943	-0.11808	1.6973	0.15172	-4.9266	6.65	721.7228	-35.4882	265.6489	26.6413	684.9658	-0.0592	0.0182	-0.0073	-0.0462	0.0165	0.9585
5.4903	0.56098	-5.4637	-0.30458	1.8928	0.48577	-5.5648	11.2608	718.4448	-35.1124	264.1539	24.3919	677.9323	-0.0592	0.0182	-0.0073	-0.0462	0.0165	0.9585
5.5109	1.1502	-5.2065	-0.60583	1.7881	1.0185	-5.3561	15.2617	720.0757	-35.2427	264.4918	22.9321	675.8019	-0.0592	0.0182	-0.0073	-0.0462	0.0165	0.9585
5.5316	1.9981	-3.4481	-1.0321	1.1428	1.7724	-3.6	18.4425	725.223	-35.845	266.1285	22.3047	677.3741	-0.0592	0.0182	-0.0073	-0.0462	0.0165	0.9585
5.5522	3.0946	0.6586	-1.5714	-0.34634	2.7322	0.58218	20.635	732.0824	-36.8253	268.3833	22.4804	681.0478	-0.0592	0.0182	-0.0073	-0.0462	0.0165	0.9585
5.5729	4.3625	8.0677	-2.1787	-3.0182	3.8236	8.1913	21.761	738.8066	-38.0355	270.5688	23.3442	685.1455	-0.0592	0.0182	-0.0073	-0.0462	0.0165	0.9585
5.5935	5.6164	19.6807	-2.7565	-7.188	4.8774	20.1897	21.875	743.7067	-39.2903	272.0696	24.6947	688.0794	-0.0592	0.0182	-0.0073	-0.0462	0.0165	0.9585
5.6141	6.5135	36.0643	-3.1351	-13.0451	5.5908	37.2039	21.1734	745.2844	-40.3989	272.3535	26.2664	688.3852	-0.0592	0.0182	-0.0073	-0.0462	0.0165	0.9585
5.6348	6.5501	57.0891	-3.0639	-20.5237	5.5179	59.1498	19.9223	742.1828	-41.1889	270.9467	27.7796	684.7017	-0.0592	0.0182	-0.0073	-0.0462	0.0165	0.9585
5.6554	5.4104	81.8147	-2.2461	-29.2603	4.2288	85.1008	18.3485	733.2795	-41.5218	267.4626	28.9993	675.8967	-0.0592	0.0182	-0.0073	-0.0462	0.0165	0.9585
5.6761	3.3161	108.5755	-0.41844	-38.6323	1.5187	113.3282	16.6034	717.9253	-41.3047	261.6827	29.7661	661.3015	-0.0592	0.0182	-0.0073	-0.0462	0.0165	0.9585
